<svg width="24" height="19" viewBox="0 0 24 19" fill="none" xmlns="http://www.w3.org/2000/svg">
<path d="M20.307 1.52009C18.787 0.811503 17.1412 0.297204 15.4269 5.25708e-05C15.4119 -0.000428132 15.3969 0.00239261 15.3831 0.00831652C15.3693 0.0142404 15.3569 0.0231236 15.3469 0.0343395C15.1412 0.411493 14.9012 0.902934 14.7412 1.28009C12.9228 1.00579 11.0736 1.00579 9.2553 1.28009C9.09529 0.891505 8.85529 0.411493 8.63814 0.0343395C8.62671 0.0114817 8.59242 5.25708e-05 8.55814 5.25708e-05C6.8438 0.297204 5.20947 0.811503 3.678 1.52009C3.66657 1.52009 3.65515 1.53152 3.64372 1.54295C0.53506 6.19451 -0.322107 10.7203 0.100762 15.2005C0.100762 15.2233 0.112191 15.2462 0.135048 15.2576C2.19225 16.7662 4.16945 17.6805 6.12378 18.2863C6.15807 18.2977 6.19236 18.2863 6.20379 18.2634C6.66094 17.6348 7.07238 16.9719 7.42668 16.2748C7.44954 16.2291 7.42668 16.1834 7.38096 16.1719C6.72952 15.9205 6.11236 15.6233 5.50662 15.2805C5.46091 15.2576 5.46091 15.189 5.4952 15.1548C5.62091 15.0633 5.74663 14.9605 5.87235 14.869C5.89521 14.8462 5.92949 14.8462 5.95235 14.8576C9.88389 16.6519 14.124 16.6519 18.0098 14.8576C18.0327 14.8462 18.067 14.8462 18.0898 14.869C18.2155 14.9719 18.3413 15.0633 18.467 15.1662C18.5127 15.2005 18.5127 15.269 18.4556 15.2919C17.8612 15.6462 17.2327 15.9319 16.5812 16.1834C16.5355 16.1948 16.5241 16.2519 16.5355 16.2862C16.9012 16.9834 17.3127 17.6462 17.7584 18.2748C17.7927 18.2863 17.827 18.2977 17.8612 18.2863C19.827 17.6805 21.8042 16.7662 23.8614 15.2576C23.8843 15.2462 23.8957 15.2233 23.8957 15.2005C24.3986 10.0232 23.0614 5.53163 20.3527 1.54295C20.3413 1.53152 20.3299 1.52009 20.307 1.52009ZM8.02098 12.469C6.8438 12.469 5.86092 11.3832 5.86092 10.046C5.86092 8.70886 6.82095 7.62312 8.02098 7.62312C9.23244 7.62312 10.1925 8.72029 10.181 10.046C10.181 11.3832 9.22101 12.469 8.02098 12.469ZM15.9869 12.469C14.8097 12.469 13.8269 11.3832 13.8269 10.046C13.8269 8.70886 14.7869 7.62312 15.9869 7.62312C17.1984 7.62312 18.1584 8.72029 18.147 10.046C18.147 11.3832 17.1984 12.469 15.9869 12.469Z" fill="white"/>
</svg>
