<svg width="29" height="29" viewBox="0 0 29 29" fill="none" xmlns="http://www.w3.org/2000/svg">
<path d="M10.0839 -1.90735e-06C13.3639 -1.90735e-06 15.9506 1.18667 17.8439 3.56C19.3906 5.50667 20.1639 7.68 20.1639 10.08V18.2C20.1639 18.8667 19.9506 19.3867 19.5239 19.76C19.0972 20.1333 18.5639 20.32 17.9239 20.32C17.3106 20.32 16.7772 20.1333 16.3239 19.76C15.8972 19.3867 15.6839 18.8667 15.6839 18.2V10.08C15.6839 8.4 15.1906 7.05333 14.2039 6.04C13.2439 5 11.8706 4.48 10.0839 4.48C8.32391 4.48 6.95057 5 5.96391 6.04C4.97724 7.08 4.48391 8.42667 4.48391 10.08V26.04C4.48391 26.7067 4.27057 27.2267 3.84391 27.6C3.41724 27.9733 2.88391 28.16 2.24391 28.16C1.63057 28.16 1.09724 27.9733 0.643906 27.6C0.21724 27.2267 0.00390625 26.7067 0.00390625 26.04V10.08C0.00390625 7.68 0.763906 5.52 2.28391 3.6C4.17724 1.2 6.77724 -1.90735e-06 10.0839 -1.90735e-06ZM28.0039 2.24V18.2C28.0039 20.6 27.2706 22.72 25.8039 24.56C23.9639 26.8533 21.3372 28 17.9239 28C14.6172 28 12.0306 26.8667 10.1639 24.6C8.61724 22.7333 7.84391 20.6 7.84391 18.2V10.08C7.84391 9.41333 8.05724 8.90667 8.48391 8.56C8.93724 8.18667 9.47057 8 10.0839 8C10.6972 8 11.2172 8.18667 11.6439 8.56C12.0972 8.90667 12.3239 9.41333 12.3239 10.08V18.2C12.3239 19.8 12.8039 21.0933 13.7639 22.08C14.7506 23.04 16.1372 23.52 17.9239 23.52C19.6839 23.52 21.0572 23.0267 22.0439 22.04C23.0306 21.0533 23.5239 19.7733 23.5239 18.2V2.24C23.5239 1.57333 23.7372 1.06667 24.1639 0.719998C24.6172 0.346665 25.1506 0.159998 25.7639 0.159998C26.3772 0.159998 26.8972 0.346665 27.3239 0.719998C27.7772 1.06667 28.0039 1.57333 28.0039 2.24Z" fill="url(#paint0_linear_1883_24)"/>
<defs>
<linearGradient id="paint0_linear_1883_24" x1="48.5517" y1="-21.6" x2="6.24872" y2="26.0909" gradientUnits="userSpaceOnUse">
<stop stop-color="#D4FFEC"/>
<stop offset="0.515625" stop-color="#57F2CC"/>
<stop offset="1" stop-color="#F745FB"/>
</linearGradient>
</defs>
</svg>
