<svg width="100" height="25" viewBox="0 0 100 25" fill="none" xmlns="http://www.w3.org/2000/svg">
<g clip-path="url(#clip0_1891_81)">
<path d="M71.3145 9.58468C69.8424 9.58468 68.7916 10.0876 68.276 11.0398L67.9987 11.5554V9.83292H65.6034V20.3036H68.1231V14.0741C68.1231 12.5858 68.9321 11.7321 70.3411 11.7321C71.6848 11.7321 72.4553 12.5634 72.4553 14.0122V20.3034H74.9762V13.5628C74.9762 11.0698 73.6075 9.58468 71.3145 9.58468ZM59.0948 9.58468C56.1213 9.58468 54.2799 11.4401 54.2799 14.4263V15.8964C54.2799 18.7681 56.1428 20.5517 59.1418 20.5517C61.1479 20.5517 62.554 19.8167 63.4387 18.3048L61.8766 17.406C61.2229 18.278 60.1786 18.8183 59.1428 18.8183C57.6247 18.8183 56.7184 17.8812 56.7184 16.3105V15.8942H63.7512V14.1577C63.7512 11.3759 61.9247 9.58468 59.0969 9.58468H59.0948ZM61.458 14.2015H56.7098V13.9501C56.7098 12.2265 57.5561 11.2753 59.0926 11.2753C60.5723 11.2753 61.4561 12.2124 61.4561 13.7831L61.458 14.2015ZM99.9998 8.10929V6.10636H91.284V8.10929H94.3399V18.2962H91.284V20.2991H99.9998V18.2962H96.943V8.10929H99.9998ZM33.9135 5.81749C30.0209 5.81749 27.601 8.24308 27.601 12.1495V14.2614C27.601 18.1667 30.02 20.5935 33.9135 20.5935C37.8071 20.5935 40.2262 18.1667 40.2262 14.2614V12.1493C40.2252 8.23878 37.8028 5.81749 33.9135 5.81749ZM37.6219 14.406C37.6219 16.9995 36.2705 18.4866 33.9135 18.4866C31.5565 18.4866 30.2061 16.9995 30.2061 14.406V12.0038C30.2061 9.41026 31.5586 7.92316 33.9147 7.92316C36.2705 7.92316 37.6231 9.41026 37.6231 12.0038L37.6219 14.406ZM48.1407 9.58468C46.8182 9.58468 45.6733 10.1325 45.0762 11.0495L44.8055 11.4667V9.83292H42.409V23.9062H44.9297V18.8085L45.1993 19.2087C45.7664 20.0497 46.8739 20.5515 48.1622 20.5515C50.335 20.5515 52.5274 19.1316 52.5274 15.9581V14.1778C52.5274 11.8913 51.176 9.58468 48.1407 9.58468ZM50.0067 15.8353C50.0067 17.5228 49.0223 18.5712 47.4387 18.5712C45.9622 18.5712 44.9319 17.4628 44.9319 15.8771V14.3021C44.9319 12.6972 45.9707 11.5673 47.4602 11.5673C49.0319 11.5673 50.0086 12.6148 50.0086 14.3021L50.0067 15.8353ZM81.9413 6.10733L76.8559 20.3034H79.4163L80.3899 17.2605H86.236L86.2458 17.2905L87.2086 20.3034H89.768L84.6739 6.10616L81.9413 6.10733ZM81.0147 15.2587L83.3086 8.08136L85.5791 15.2587H81.0147ZM22.6727 10.0704C22.9486 9.24226 23.0443 8.36471 22.9536 7.49654C22.8628 6.62837 22.5876 5.78961 22.1463 5.03644C21.4913 3.89807 20.492 2.99687 19.2922 2.46255C18.0925 1.92823 16.7541 1.78833 15.4698 2.063C14.8905 1.40978 14.1784 0.887816 13.3811 0.532052C12.5838 0.176288 11.7198 -0.00507298 10.8467 0.000107952C9.53313 -0.00283592 8.25255 0.411538 7.18969 1.18346C6.12683 1.95539 5.33662 3.04496 4.93305 4.29503C4.07789 4.47041 3.27004 4.82635 2.56351 5.33907C1.85699 5.85179 1.26808 6.50945 0.836177 7.26808C0.177713 8.40454 -0.103189 9.72061 0.0339023 11.0269C0.170994 12.3331 0.719008 13.5622 1.59907 14.5372C1.32421 15.3647 1.22899 16.2413 1.31976 17.1084C1.41053 17.9756 1.6852 18.8135 2.12544 19.5661C2.77984 20.7066 3.77958 21.6097 4.98047 22.1453C6.18136 22.6808 7.52132 22.8211 8.80708 22.5458C9.38584 23.1983 10.0971 23.7198 10.8935 24.0755C11.6898 24.4313 12.5529 24.613 13.425 24.6087C14.7386 24.6117 16.0192 24.1973 17.0821 23.4254C18.145 22.6535 18.9352 21.5639 19.3387 20.3138C20.1937 20.1383 21.0014 19.7823 21.7077 19.2695C22.414 18.7568 23.0027 18.0991 23.4344 17.3405C24.0946 16.2044 24.3766 14.8879 24.2397 13.5811C24.1027 12.2743 23.554 11.045 22.6727 10.0704ZM13.425 23.004C12.3463 23.0049 11.3017 22.6262 10.4743 21.9341C10.5106 21.9138 10.5813 21.8784 10.6219 21.8517L15.5223 19.0228C15.6453 18.9529 15.7474 18.8515 15.8181 18.7291C15.8888 18.6066 15.9256 18.4675 15.9247 18.3261V11.4165L17.995 12.6116C18.0062 12.6169 18.0158 12.6251 18.0229 12.6352C18.03 12.6453 18.0344 12.6571 18.0356 12.6694V18.3882C18.0356 20.9353 15.9723 23.0011 13.425 23.004ZM3.5184 18.7733C2.97828 17.8397 2.78333 16.746 2.96762 15.6833C3.00376 15.7058 3.06801 15.7442 3.11294 15.7698L8.0145 18.5999C8.13654 18.6714 8.27541 18.7091 8.41684 18.7091C8.55827 18.7091 8.69715 18.6714 8.81919 18.5999L14.7987 15.1421V17.5323C14.7998 17.5446 14.7977 17.5569 14.7926 17.5682C14.7876 17.5794 14.7797 17.5891 14.7698 17.5964L9.81626 20.4554C7.61079 21.7253 4.7936 20.9704 3.5184 18.7679V18.7733ZM2.23462 8.07374C2.77225 7.13875 3.62183 6.42283 4.63442 6.05147V11.8763C4.63367 12.0177 4.67054 12.1567 4.74125 12.2791C4.81195 12.4015 4.91394 12.5029 5.03676 12.573L11.0178 16.0267L8.93989 17.2261C8.92977 17.2329 8.91809 17.2371 8.90595 17.2382C8.8938 17.2393 8.88156 17.2374 8.87036 17.2325L3.91762 14.3728C1.71411 13.098 0.959029 10.2796 2.23012 8.07394L2.23462 8.07374ZM19.2467 12.0327L13.2655 8.57882L15.3338 7.38253C15.344 7.37583 15.3556 7.37174 15.3677 7.37062C15.3798 7.3695 15.392 7.37137 15.4032 7.37608L20.3561 10.236C21.1147 10.6743 21.7328 11.3197 22.138 12.0965C22.5431 12.8734 22.7186 13.7495 22.6438 14.6225C22.569 15.4955 22.2471 16.329 21.7157 17.0257C21.1844 17.7223 20.4655 18.2531 19.6434 18.556V12.7325C19.645 12.5908 19.6088 12.4512 19.5384 12.3282C19.4681 12.2052 19.3662 12.1032 19.2432 12.0327H19.2467ZM21.3084 8.9298C21.2604 8.90019 21.2119 8.87128 21.1629 8.84308L16.2616 6.01319C16.1395 5.94172 16.0007 5.90404 15.8592 5.90404C15.7178 5.90404 15.5789 5.94172 15.4569 6.01319L9.47583 9.46593V7.07667C9.47544 7.06438 9.47797 7.05217 9.4832 7.04104C9.48842 7.02991 9.4962 7.02016 9.5059 7.01261L14.4586 4.15362C15.2175 3.71611 16.0853 3.5038 16.9605 3.54153C17.8356 3.57926 18.6819 3.86548 19.4003 4.36668C20.1187 4.86789 20.6795 5.56334 21.017 6.37166C21.3546 7.17997 21.4549 8.06771 21.3063 8.93097L21.3084 8.9298ZM8.34711 13.1925L6.27583 11.9974C6.26519 11.9915 6.25608 11.9833 6.24919 11.9732C6.24231 11.9632 6.23785 11.9518 6.23618 11.9398V6.22062C6.23547 5.34408 6.48465 4.48551 6.95452 3.74555C7.42438 3.00559 8.09544 2.4149 8.88905 2.04274C9.68265 1.67058 10.5659 1.53236 11.4353 1.64429C12.3046 1.75623 13.1241 2.11367 13.7975 2.67472C13.7612 2.69523 13.6959 2.73038 13.6498 2.75714L8.74946 5.58605C8.62664 5.65606 8.52464 5.75747 8.45394 5.8799C8.38324 6.00232 8.34637 6.14135 8.34711 6.28273V13.1925ZM9.47172 10.7671L12.1358 9.22843L14.7989 10.7671V13.8421L12.1348 15.3806L9.47075 13.8421L9.47172 10.7671Z" fill="white"/>
</g>
<defs>
<clipPath id="clip0_1891_81">
<rect width="100" height="24.6094" fill="white"/>
</clipPath>
</defs>
</svg>
